<?xml version="1.0" encoding="UTF-8"?>
<svg xmlns="http://www.w3.org/2000/svg" width="1200" height="630" viewBox="0 0 1200 630" role="img" aria-label="Why cloud inventories don't explain cloud environments">
  <defs>
    <linearGradient id="bg" x1="0" y1="0" x2="1" y2="1">
      <stop offset="0" stop-color="#0a0d12"/>
      <stop offset="1" stop-color="#11161f"/>
    </linearGradient>
    <radialGradient id="glow" cx="78%" cy="8%" r="70%">
      <stop offset="0" stop-color="#2f80ff" stop-opacity="0.32"/>
      <stop offset="1" stop-color="#2f80ff" stop-opacity="0"/>
    </radialGradient>
    <pattern id="grid" width="48" height="48" patternUnits="userSpaceOnUse">
      <path d="M48 0H0V48" fill="none" stroke="#1f2733" stroke-width="1"/>
    </pattern>
  </defs>

  <rect width="1200" height="630" fill="url(#bg)"/>
  <rect width="1200" height="630" fill="url(#grid)" opacity="0.5"/>
  <rect width="1200" height="630" fill="url(#glow)"/>

  <g opacity="0.9">
    <line x1="1011.3" y1="398.6" x2="991.2" y2="306.3" stroke="#2f80ff" stroke-width="1.5" stroke-opacity="0.28"/>
    <line x1="991.2" y1="306.3" x2="948.9" y2="407.8" stroke="#2f80ff" stroke-width="1.5" stroke-opacity="0.28"/>
    <line x1="1011.3" y1="398.6" x2="771.2" y2="296.0" stroke="#2f80ff" stroke-width="1.5" stroke-opacity="0.28"/>
    <line x1="771.2" y1="296.0" x2="869.7" y2="144.2" stroke="#2f80ff" stroke-width="1.5" stroke-opacity="0.28"/>
    <line x1="1011.3" y1="398.6" x2="925.0" y2="512.0" stroke="#2f80ff" stroke-width="1.5" stroke-opacity="0.28"/>
    <line x1="1011.3" y1="398.6" x2="848.5" y2="454.7" stroke="#2f80ff" stroke-width="1.5" stroke-opacity="0.28"/>
    <line x1="1011.3" y1="398.6" x2="948.9" y2="407.8" stroke="#2f80ff" stroke-width="1.5" stroke-opacity="0.28"/>
    <line x1="948.9" y1="407.8" x2="771.2" y2="296.0" stroke="#2f80ff" stroke-width="1.5" stroke-opacity="0.28"/>
    <line x1="1011.3" y1="398.6" x2="869.7" y2="144.2" stroke="#2f80ff" stroke-width="1.5" stroke-opacity="0.28"/>
    <circle cx="991.2" cy="306.3" r="17.4" fill="#2f80ff" opacity="0.10"/>
    <circle cx="991.2" cy="306.3" r="11.4" fill="#58a3ff" stroke="#0a0d12" stroke-width="2"/>
    <circle cx="771.2" cy="296.0" r="14.7" fill="#2f80ff" opacity="0.10"/>
    <circle cx="771.2" cy="296.0" r="8.7" fill="#2a3340" stroke="#0a0d12" stroke-width="2"/>
    <circle cx="925.0" cy="512.0" r="12.3" fill="#2f80ff" opacity="0.10"/>
    <circle cx="925.0" cy="512.0" r="6.3" fill="#58a3ff" stroke="#0a0d12" stroke-width="2"/>
    <circle cx="1011.3" cy="398.6" r="22.0" fill="#2f80ff" opacity="0.10"/>
    <circle cx="1011.3" cy="398.6" r="16.0" fill="#2f80ff" stroke="#0a0d12" stroke-width="2"/>
    <circle cx="848.5" cy="454.7" r="13.7" fill="#2f80ff" opacity="0.10"/>
    <circle cx="848.5" cy="454.7" r="7.7" fill="#58a3ff" stroke="#0a0d12" stroke-width="2"/>
    <circle cx="948.9" cy="407.8" r="17.5" fill="#2f80ff" opacity="0.10"/>
    <circle cx="948.9" cy="407.8" r="11.5" fill="#2a3340" stroke="#0a0d12" stroke-width="2"/>
    <circle cx="869.7" cy="144.2" r="13.2" fill="#2f80ff" opacity="0.10"/>
    <circle cx="869.7" cy="144.2" r="7.2" fill="#58a3ff" stroke="#0a0d12" stroke-width="2"/>
  </g>

  <g font-family="Inter, ui-sans-serif, system-ui, -apple-system, 'Segoe UI', Roboto, Arial, sans-serif">
    <text x="100" y="120" font-size="22" letter-spacing="4" font-weight="600" fill="#2f80ff">KNOWLEDGE-GRAPH</text>

    <text font-size="60" font-weight="700" letter-spacing="-1.5" fill="#f7f8fa">
      <tspan x="100" y="277">Why cloud inventories</tspan>
      <tspan x="100" y="344">don't explain cloud</tspan>
      <tspan x="100" y="412">environments</tspan>
    </text>

    <text x="100" y="556" font-size="26" font-weight="700" letter-spacing="-0.5">
      <tspan fill="#eef0f4">Cloudo</tspan><tspan fill="#2f80ff">X</tspan>
    </text>
    <text x="1100" y="556" font-size="24" font-weight="600" fill="#8b95a7" text-anchor="end">cloudox.io</text>
  </g>
</svg>
